<svg xmlns="http://www.w3.org/2000/svg" width="231.753" height="52.374" viewBox="0 0 231.753 52.374">
  <g id="Group_11" data-name="Group 11" transform="translate(3766 -1571.836)">
    <g id="Group_6" data-name="Group 6" transform="translate(-3766 1571.836)">
      <path id="Path_203" data-name="Path 203" d="M1008.685-653.389c-.409-.288-.569-.067-.716.174a2.979,2.979,0,0,0-.355.643.787.787,0,0,1-.888.574c-.709-.012-1.42-.038-2.128-.085-1.12-.075-2.239-.167-3.357-.26a8.662,8.662,0,0,1-.972-.127.29.29,0,0,1-.16-.238,1.064,1.064,0,0,1,.2-.45c.449-.551.9-1.1,1.381-1.622a2.406,2.406,0,0,1,.645-.487,3.48,3.48,0,0,0,1.847-3.1,17.509,17.509,0,0,0-.22-3.882,4.156,4.156,0,0,1,.046-.884,10.051,10.051,0,0,0-.331-3.065,8.018,8.018,0,0,1-.141-3.532,15.862,15.862,0,0,0,.358-1.967,8.327,8.327,0,0,0-.128-1.84c-.172-1.076-.474-2.135-.576-3.214a6.406,6.406,0,0,1,.265-1.943c.289-1.282.641-2.55.941-3.83.139-.6.16-1.228.342-1.809a16.1,16.1,0,0,1,.822-1.95,1.707,1.707,0,0,0-.515-1.9,4.5,4.5,0,0,1-1.283-2.079c-.183-.575-.293-1.173-.439-1.76-.1-.42-.258-.47-.549-.186a1.008,1.008,0,0,1-1.557-.1,10.672,10.672,0,0,1-2.952-4.87,1.373,1.373,0,0,0-.181-.342,1.728,1.728,0,0,1,.594-2.443c.366-.232.7-.522,1.083-.721,1-.52,2.019-1,3.029-1.5.3-.149.586-.328.894-.46a6.962,6.962,0,0,1,1.3-.481,1.214,1.214,0,0,1,1.128.371.864.864,0,0,0,1.113.192,5.717,5.717,0,0,1,2.189-.429c.589-.029,1.174-.118,1.763-.162.357-.028.714-.032,1.071-.027s.726.072,1.084.042a2.925,2.925,0,0,1,1.748.387.486.486,0,0,0,.682-.066,1.033,1.033,0,0,1,.689-.2,4.626,4.626,0,0,1,1.244.167,9.146,9.146,0,0,1,1,.515,12.093,12.093,0,0,0,1.353.528c.628.194,1.281.308,1.9.515a2.878,2.878,0,0,1,1.6,1.4,2.866,2.866,0,0,1,.173,1.4,39.731,39.731,0,0,1-.684,6.078,5.36,5.36,0,0,1-.187.947c-.1.255-.283.582-.5.654a.834.834,0,0,1-.717-.309,11.8,11.8,0,0,1-.82-1.525,7.139,7.139,0,0,0-.271-.68.708.708,0,0,0-.438-.294c-.093-.014-.282.179-.316.309a8.57,8.57,0,0,0-.233,1.252,6.764,6.764,0,0,1-.87,2.894c-.389.634-.017,1.194.737,1.224a26.464,26.464,0,0,1,2.885.212c.818.125,1.6.455,2.421.6a19.018,19.018,0,0,0,2.113.164.279.279,0,0,0,.144-.047q2.022-1.137,4.042-2.277c.978-.548,1.985-1.049,2.931-1.644a17.918,17.918,0,0,1,2.951-1.422,5.958,5.958,0,0,1,1.741-.314,31.884,31.884,0,0,1,5.563-.21,7.69,7.69,0,0,1,3.424.984c.319.2.186.435.016.563a3.306,3.306,0,0,1-.975.529,9.486,9.486,0,0,1-1.514.308c-1.393.193-2.8.282-4.178.565a12.786,12.786,0,0,0-3.7,1.054,15.459,15.459,0,0,0-3.175,2.2c-.6.562-1.273,1.047-1.9,1.586-.763.657-.811.693-.172,1.605a7.268,7.268,0,0,1,1.276,2.234c.159.587.515,1.122.675,1.71a15.3,15.3,0,0,1,.593,2.684,5.2,5.2,0,0,0,.83,2.221,5.481,5.481,0,0,1,.859,2.089c.128.887.358,1.76.512,2.645.082.469.069.953.15,1.422a5.557,5.557,0,0,0,.331,1.182,6.361,6.361,0,0,1,.587,2.7c-.039,1.4.1,2.807.082,4.21a23.842,23.842,0,0,0,.331,4.071,8.193,8.193,0,0,1,.029,1.43.641.641,0,0,1-.593.667,22.832,22.832,0,0,1-2.5.1,13.536,13.536,0,0,1-1.643-.238.406.406,0,0,1-.383-.482c.018-.422-.006-.85.044-1.268a1.861,1.861,0,0,1,.264-.718,5.831,5.831,0,0,0,.784-3.518c-.055-.807-.057-1.621-.161-2.421a5.057,5.057,0,0,0-.439-1.512,2.459,2.459,0,0,1-.221-1.5,1.125,1.125,0,0,0-.027-.526,3.662,3.662,0,0,0-1.6-2.063,4.7,4.7,0,0,1-1.882-2c-.507-1.029-.89-.718-1.582-.428-.35.146-.668.369-1.016.525-.425.19-.874.326-1.3.521-.593.276-.677.851-.721,1.408-.064.8-.069,1.615-.115,2.422-.063,1.1-.132,2.208-.216,3.312-.085,1.129-.188,2.256-.292,3.384-.06.649-.178,1.3-.2,1.947a22.049,22.049,0,0,0,.042,2.7c.045.5.36.972.435,1.474a2.177,2.177,0,0,1-.3,1.985.861.861,0,0,1-.511.237c-.536.05-1.076.053-1.614.078a19.559,19.559,0,0,1-4.341-.4c-.463-.082-.537-.46-.575-.814a2.961,2.961,0,0,1,.516-2.1,4.334,4.334,0,0,0,.734-1.937c.044-.3-.079-.453-.359-.48-.359-.037-.722-.039-1.082-.073-.706-.067-1.413-.132-2.113-.233a1.346,1.346,0,0,1-.477-.284,4.053,4.053,0,0,0-.588-.408c-.275-.12-.324-.216-.1-.422.18-.168.376-.317.557-.484.237-.217.452-.463.7-.663a3.873,3.873,0,0,1,.879-.587,1.629,1.629,0,0,0,.85-.687c.272-.469.565-.925.866-1.376a7.758,7.758,0,0,0,.758-2.506c.059-.225.1-.453.144-.681a1.418,1.418,0,0,0-.242-1.172c-.229-.321-.341-.73-.582-1.039a.9.9,0,0,0-.66-.353,6.37,6.37,0,0,1-2.228-.136,4.932,4.932,0,0,0-1.675.148,1.071,1.071,0,0,1-1.012-.31,7.573,7.573,0,0,0-.792-.542,9.293,9.293,0,0,1-.807-.759c-.27-.277-.505-.588-.786-.852-.3-.283-.575-.205-.625.2-.084.682-.107,1.373-.137,2.061-.018.422.037.85-.007,1.267-.123,1.18-.244,2.363-.437,3.533a7.609,7.609,0,0,0,0,2.576,9.72,9.72,0,0,1,.076,3c-.145,1.085-.17,2.186-.248,3.28C1008.736-653.861,1008.713-653.674,1008.685-653.389Z" transform="translate(-965.445 703.186)" fill="#192438"/>
      <path id="Path_204" data-name="Path 204" d="M997.6-664.78a2.9,2.9,0,0,0-.269.794,1.394,1.394,0,0,0,.1.708c.061.134.134.256.183.378s.085.244.134.366a2.452,2.452,0,0,0,.94,1.026,9.648,9.648,0,0,1,1.148.806.465.465,0,0,1,.171.232.5.5,0,0,1-.085.342,1.46,1.46,0,0,1-.879.549,7.779,7.779,0,0,1-1.062.1,6.187,6.187,0,0,1-1.257.024,1.272,1.272,0,0,1-1.123-.83c-.171-.488-.574-.891-.647-1.4-.073-.476.146-.952.1-1.44a.375.375,0,0,0-.037-.159,1.06,1.06,0,0,0-.11-.134.986.986,0,0,1-.146-.72,9.126,9.126,0,0,0-.134-1.624c-.049-.391-.1-.794-.11-1.184-.012-.281-.122-.391-.391-.342a19.6,19.6,0,0,1-2.063.317c-.549.024-.7.293-.794.769-.11.586-.293,1.148-.452,1.721a6.191,6.191,0,0,0-.085,1.709,5.752,5.752,0,0,0,.1,2.051,3.545,3.545,0,0,1,.281.757,2.6,2.6,0,0,0,.024.317,1.261,1.261,0,0,0,.183.33,4.38,4.38,0,0,1,.391.879c.159.427.525,1.4-.012,1.721a1.01,1.01,0,0,1-.183.049,8.77,8.77,0,0,1-2.185.256,1.711,1.711,0,0,1-1.514-.818,2.331,2.331,0,0,1-.122-1.233,14.769,14.769,0,0,0,.037-3.027c-.1-.9-.354-1.77-.452-2.674a10.4,10.4,0,0,1-.11-2.613,2.092,2.092,0,0,0,.061-.671.574.574,0,0,0-.293-.366c-.342-.2-.72-.317-1.062-.525-.793-.488-1.55-1-2.344-1.489a.622.622,0,0,0-.488-.037c-1.233.684-1.245,1.306-1.123,2.417a5.7,5.7,0,0,0,.586,1.428.325.325,0,0,0,.134.122c.6.269,1.2.537,1.843.818a4.463,4.463,0,0,1-.147,1.1c-.073.2-.415.305-.659.427-.1.049-.244-.012-.354.024a1.936,1.936,0,0,1-2.576-1.148c-.256-.61-.488-1.233-.708-1.868a7.307,7.307,0,0,1-.22-.891c-.171-.623-.305-1.258-.513-1.868a1.343,1.343,0,0,1,.208-1.453c.2-.244.378-.488.561-.745a.552.552,0,0,0,.024-.7c-.305-.439-.623-.879-.928-1.331-.159-.22-.317-.2-.427.024a5.266,5.266,0,0,0-.317.83,1.967,1.967,0,0,1-.7.989,3.923,3.923,0,0,0-.671.806,14.572,14.572,0,0,0-.964,1.624,12.9,12.9,0,0,1-1.184,1.746,3.763,3.763,0,0,0-.647,2.527,8.321,8.321,0,0,0-.024.952,10.909,10.909,0,0,0,.391,1.27,1.764,1.764,0,0,1,.183.452c.024.256-.244.513.012.769-.244.147-.476.293-.72.415a2.326,2.326,0,0,1-2.417-.378.869.869,0,0,1-.354-.952c.268-1.2.562-2.38.818-3.577a5.793,5.793,0,0,0,.232-2.466.758.758,0,0,1,.122-.562,3.7,3.7,0,0,0,.684-2.246c.049-.806.11-1.611.22-2.4.085-.659.269-1.306.378-1.965a4.881,4.881,0,0,0,.11-1.025,6.507,6.507,0,0,1,.623-3.113,9.849,9.849,0,0,1,2.527-3.308,1.443,1.443,0,0,0,.33-.391,2.156,2.156,0,0,1,1.709-1.172,2.733,2.733,0,0,1,.891.2,2.313,2.313,0,0,0,.562.122,10.222,10.222,0,0,1,2.741.183,11.18,11.18,0,0,1,2.6.763,11.616,11.616,0,0,1,1.591.914,4.531,4.531,0,0,0,.613.4.08.08,0,0,0,.066.01c.043-.019.023-.084,0-.123-.3-.468-.6-.936-.928-1.382a3.193,3.193,0,0,1-.424-.667,2.843,2.843,0,0,1-.157-.743c-.087-.72-.172-1.442-.236-2.164a1.788,1.788,0,0,1,.579-1.635,1.294,1.294,0,0,1,1.488.046,10.474,10.474,0,0,1,1.55,1.306c.439.391.842.793,1.282,1.184.049.049.183.024.269.012a7.912,7.912,0,0,1,1.66-.244c.83.049,1.636-.366,2.49-.1.586.2.9-.256,1.184-.659.33-.476.623-.989.952-1.465a3.423,3.423,0,0,1,.61-.647,1.332,1.332,0,0,1,2.3.647,10.883,10.883,0,0,1,.2,2.283c.024.354.024.708.049,1.062a2.417,2.417,0,0,1-.427,1.929c-.22.269-.305.659-.525.928a1.752,1.752,0,0,0-.354,1.746,4.2,4.2,0,0,1-.159,2.417.9.9,0,0,0,.159.83,4.285,4.285,0,0,1,.464,1.233,12.982,12.982,0,0,1,.452,2.258,3.755,3.755,0,0,1-.684,2.918,5.453,5.453,0,0,0-.977,2.185,16.449,16.449,0,0,1-.513,1.88c-.22.623-.464,1.233-.671,1.856C997.718-665.06,997.657-664.926,997.6-664.78Z" transform="translate(-971.298 706.142)" fill="#192438"/>
    </g>
    <text id="_.shop" data-name=".shop" transform="translate(-3560.247 1583.521)" fill="#62156d" font-size="10" font-family="Nunito-Black, Nunito" font-weight="800"><tspan x="0" y="0">.shop</tspan></text>
    <text id="PAWSGANG" transform="translate(-3680.247 1607.613)" fill="#62156d" font-size="24" font-family="Nunito-Black, Nunito" font-weight="800"><tspan x="0" y="0">PAWS</tspan><tspan y="0" fill="#192438">GANG</tspan></text>
  </g>
</svg>
